<?xml version="1.0" encoding="UTF-8" standalone="no"?>
<!-- Created with Inkscape (http://www.inkscape.org/) -->

<svg
   xmlns:dc="http://purl.org/dc/elements/1.1/"
   xmlns:cc="http://creativecommons.org/ns#"
   xmlns:rdf="http://www.w3.org/1999/02/22-rdf-syntax-ns#"
   xmlns:svg="http://www.w3.org/2000/svg"
   xmlns="http://www.w3.org/2000/svg"
   xmlns:sodipodi="http://sodipodi.sourceforge.net/DTD/sodipodi-0.dtd"
   xmlns:inkscape="http://www.inkscape.org/namespaces/inkscape"
   width="210mm"
   height="297mm"
   viewBox="0 0 210 297"
   version="1.1"
   id="svg848"
   inkscape:version="0.92.3 (2405546, 2018-03-11)"
   sodipodi:docname="drawing.svg">
  <defs
     id="defs842" />
  <sodipodi:namedview
     id="base"
     pagecolor="#ffffff"
     bordercolor="#666666"
     borderopacity="1.0"
     inkscape:pageopacity="0.0"
     inkscape:pageshadow="2"
     inkscape:zoom="0.98994949"
     inkscape:cx="231.24399"
     inkscape:cy="772.91821"
     inkscape:document-units="mm"
     inkscape:current-layer="layer1"
     showgrid="false"
     inkscape:window-width="1920"
     inkscape:window-height="1057"
     inkscape:window-x="1358"
     inkscape:window-y="-8"
     inkscape:window-maximized="1" />
  <metadata
     id="metadata845">
    <rdf:RDF>
      <cc:Work
         rdf:about="">
        <dc:format>image/svg+xml</dc:format>
        <dc:type
           rdf:resource="http://purl.org/dc/dcmitype/StillImage" />
        <dc:title></dc:title>
      </cc:Work>
    </rdf:RDF>
  </metadata>
  <g
     inkscape:label="Layer 1"
     inkscape:groupmode="layer"
     id="layer1">
    <g
       transform="translate(-18.49549,-11.147538)"
       id="g834"
       style="display:inline;fill:none;stroke:#000000;stroke-width:0.1;stroke-miterlimit:4;stroke-dasharray:none;stroke-opacity:1">
      <path
         style="fill:none;fill-opacity:1;stroke:#000000;stroke-width:0.1;stroke-miterlimit:4;stroke-dasharray:none;stroke-opacity:1"
         d="m 57.143858,171.57522 c -3.99854,-9.47304 -7.008043,-19.29343 -7.825629,-25.53602 -3.200503,-24.43712 -3.418062,-38.05265 -0.91776,-57.436889 1.420868,-11.015643 4.508608,-25.692203 6.481683,-30.808559 4.438927,-11.51052 23.540499,-24.862393 40.696135,-28.446331 14.766783,-3.08489 38.493853,-3.08489 53.260643,0 11.78524,2.462024 24.76992,9.540733 33.4381,18.229067 5.29918,5.311516 7.2082,8.71007 9.00016,16.022699 5.76716,23.534584 7.60651,44.929623 5.67522,66.013543 -0.84034,9.17391 -2.28807,20.0702 -3.03262,22.82475 -2.1701,8.02861 -7.41588,22.02212 -8.25548,22.02212 -0.21305,0 -0.61253,-0.1205 -0.88773,-0.26779 -0.47728,-0.25543 -0.45691,-0.36835 0.44148,-2.44739 3.57522,-8.27373 7.18859,-19.57051 7.91734,-24.75264 3.43945,-24.45792 3.57912,-42.27597 0.48985,-62.49051 -1.20624,-7.892987 -4.06238,-21.228262 -5.28153,-24.659352 -1.53196,-4.311438 -3.73082,-7.515426 -7.95944,-11.59783 -7.86993,-7.597786 -19.00066,-13.8479 -29.43332,-16.527363 -15.70284,-4.033025 -44.67335,-3.773642 -59.434019,0.532133 -13.941329,4.066768 -29.476302,15.170785 -34.060986,24.345956 -1.240044,2.481659 -1.830777,4.371208 -3.228872,10.328074 -2.647423,11.279872 -4.165129,20.911333 -5.229817,33.188802 -0.441958,5.09644 -0.438523,22.34235 0.0053,26.8552 1.545802,15.71623 2.475442,22.35245 3.724968,26.59063 1.748269,5.92983 4.437809,13.48966 6.470304,18.1869 0.899533,2.07888 0.919993,2.19198 0.442751,2.44739 -1.026936,0.54961 -1.266167,0.29889 -2.496781,-2.61659 z"
         id="path838"
         inkscape:connector-curvature="0" />
      <path
         style="fill:none;fill-opacity:1;stroke:#000000;stroke-width:0.1;stroke-miterlimit:4;stroke-dasharray:none;stroke-opacity:1"
         d="m 58.011643,173.20167 c -2.34611,-5.40641 -4.699058,-11.93062 -6.750661,-18.71811 -1.032758,-3.41676 -1.323348,-4.94392 -2.089332,-10.98021 -1.881989,-14.83092 -2.089039,-17.82526 -2.085644,-30.1625 0.0032,-11.70557 0.217426,-15.334522 1.46023,-24.738539 1.256474,-9.50746 4.087939,-23.564053 5.835898,-28.971874 1.433285,-4.434285 4.066582,-8.335145 8.526486,-12.630804 8.070808,-7.773582 19.484893,-14.176834 30.063529,-16.86551 15.422101,-3.919695 43.050821,-3.919695 58.472911,0 10.57864,2.688676 21.99273,9.091928 30.06353,16.86551 4.45991,4.295659 7.0932,8.196519 8.52649,12.630804 1.74796,5.407821 4.57942,19.464414 5.8359,28.971874 1.2428,9.404017 1.45701,13.032969 1.46023,24.738539 0.003,12.33724 -0.20366,15.33158 -2.08565,30.1625 -0.76598,6.03629 -1.05657,7.56345 -2.08933,10.98021 -2.0516,6.78749 -4.40455,13.3117 -6.75066,18.71811 -0.52289,1.20494 -0.57238,1.24308 -1.22645,0.94506 -0.37487,-0.1708 -0.62645,-0.43817 -0.55906,-0.59415 2.78872,-6.45474 6.60697,-17.20927 7.82256,-22.03307 0.56282,-2.23345 1.18318,-6.54747 2.10393,-14.63074 1.89712,-16.65494 1.97486,-29.34346 0.27231,-44.45 -1.29208,-11.46451 -4.46642,-27.49944 -6.62469,-33.464114 -3.95693,-10.93552 -22.31721,-24.123342 -38.64133,-27.755296 -15.27392,-3.398293 -39.41455,-3.398293 -54.688465,0 -8.933883,1.9877 -19.071954,7.076746 -27.424517,13.766392 -5.452009,4.366564 -9.612574,9.555358 -11.216819,13.988904 -1.41986,3.923972 -4.158522,16.27114 -5.427189,24.46828 -2.879913,18.607794 -3.145552,33.953144 -0.925184,53.445834 0.920744,8.08327 1.54111,12.39729 2.103932,14.63074 1.21558,4.8238 5.033833,15.57833 7.822554,22.03307 0.06739,0.15598 -0.184184,0.42335 -0.559054,0.59415 -0.654079,0.29802 -0.703569,0.25988 -1.226455,-0.94506 z"
         id="path836"
         inkscape:connector-curvature="0" />
    </g>
  </g>
</svg>
