  0
SECTION
  2
HEADER
  9
$ACADVER
  1
AC1014
  9
$HANDSEED
  5
FFFF
  9
$MEASUREMENT
 70
     1
  0
ENDSEC
  0
SECTION
  2
TABLES
  0
TABLE
  2
VPORT
  5
8
330
0
100
AcDbSymbolTable
 70
     4
  0
VPORT
  5
2E
330
8
100
AcDbSymbolTableRecord
100
AcDbViewportTableRecord
  2
*ACTIVE
 70
     0
 10
0.0
 20
0.0
 11
1.0
 21
1.0
 12
210.0
 22
148.5
 13
0.0
 23
0.0
 14
10.0
 24
10.0
 15
10.0
 25
10.0
 16
0.0
 26
0.0
 36
1.0
 17
0.0
 27
0.0
 37
0.0
 40
341.0
 41
1.24
 42
50.0
 43
0.0
 44
0.0
 50
0.0
 51
0.0
 71
     0
 72
   100
 73
     1
 74
     3
 75
     0
 76
     0
 77
     0
 78
     0
  0
ENDTAB
  0
TABLE
  2
LTYPE
  5
5
330
0
100
AcDbSymbolTable
 70
     1
  0
LTYPE
  5
14
330
5
100
AcDbSymbolTableRecord
100
AcDbLinetypeTableRecord
  2
BYBLOCK
 70
     0
  3

 72
    65
 73
     0
 40
0.0
  0
LTYPE
  5
15
330
5
100
AcDbSymbolTableRecord
100
AcDbLinetypeTableRecord
  2
BYLAYER
 70
     0
  3

 72
    65
 73
     0
 40
0.0
  0
LTYPE
  5
16
330
5
100
AcDbSymbolTableRecord
100
AcDbLinetypeTableRecord
  2
CONTINUOUS
 70
     0
  3
Solid line
 72
    65
 73
     0
 40
0.0
  0
ENDTAB
  0
TABLE
  2
LAYER
  5
2
100
AcDbSymbolTable
 70
2
  0
LAYER
  5
50
100
AcDbSymbolTableRecord
100
AcDbLayerTableRecord
  2
0
 70
0
  6
CONTINUOUS
  0
LAYER
  5
51
100
AcDbSymbolTableRecord
100
AcDbLayerTableRecord
  2
Layer_1
 70
0
  6
CONTINUOUS
  0
ENDTAB
  0
TABLE
  2
STYLE
  5
3
330
0
100
AcDbSymbolTable
 70
     1
  0
STYLE
  5
11
330
3
100
AcDbSymbolTableRecord
100
AcDbTextStyleTableRecord
  2
STANDARD
 70
     0
 40
0.0
 41
1.0
 50
0.0
 71
     0
 42
2.5
  3
txt
  4

  0
ENDTAB
  0
TABLE
  2
VIEW
  5
6
330
0
100
AcDbSymbolTable
 70
     0
  0
ENDTAB
  0
TABLE
  2
UCS
  5
7
330
0
100
AcDbSymbolTable
 70
     0
  0
ENDTAB
  0
TABLE
  2
APPID
  5
9
330
0
100
AcDbSymbolTable
 70
     2
  0
APPID
  5
12
330
9
100
AcDbSymbolTableRecord
100
AcDbRegAppTableRecord
  2
ACAD
 70
     0
  0
ENDTAB
  0
TABLE
  2
DIMSTYLE
  5
A
330
0
100
AcDbSymbolTable
 70
     1
  0
DIMSTYLE
105
27
330
A
100
AcDbSymbolTableRecord
100
AcDbDimStyleTableRecord
  2
ISO-25
 70
     0
  3

  4

  5

  6

  7

 40
1.0
 41
2.5
 42
0.625
 43
3.75
 44
1.25
 45
0.0
 46
0.0
 47
0.0
 48
0.0
140
2.5
141
2.5
142
0.0
143
0.03937007874016
144
1.0
145
0.0
146
1.0
147
0.625
 71
     0
 72
     0
 73
     0
 74
     0
 75
     0
 76
     0
 77
     1
 78
     8
170
     0
171
     3
172
     1
173
     0
174
     0
175
     0
176
     0
177
     0
178
     0
270
     2
271
     2
272
     2
273
     2
274
     3
340
11
275
     0
280
     0
281
     0
282
     0
283
     0
284
     8
285
     0
286
     0
287
     3
288
     0
  0
ENDTAB
  0
TABLE
  2
BLOCK_RECORD
  5
1
330
0
100
AcDbSymbolTable
 70
     1
  0
BLOCK_RECORD
  5
1F
330
1
100
AcDbSymbolTableRecord
100
AcDbBlockTableRecord
  2
*MODEL_SPACE
  0
BLOCK_RECORD
  5
1B
330
1
100
AcDbSymbolTableRecord
100
AcDbBlockTableRecord
  2
*PAPER_SPACE
  0
ENDTAB
  0
ENDSEC
  0
SECTION
  2
BLOCKS
  0
BLOCK
  5
20
330
1F
100
AcDbEntity
  8
0
100
AcDbBlockBegin
  2
*MODEL_SPACE
 70
     0
 10
0.0
 20
0.0
 30
0.0
  3
*MODEL_SPACE
  1

  0
ENDBLK
  5
21
330
1F
100
AcDbEntity
  8
0
100
AcDbBlockEnd
  0
BLOCK
  5
1C
330
1B
100
AcDbEntity
 67
     1
  8
0
100
AcDbBlockBegin
  2
*PAPER_SPACE
  1

  0
ENDBLK
  5
1D
330
1B
100
AcDbEntity
 67
     1
  8
0
100
AcDbBlockEnd
  0
ENDSEC
  0
SECTION
  2
ENTITIES
  0
SPLINE
  5
100
100
AcDbEntity
  8
Layer_1
 62
7
100
AcDbSpline
 70
8
 71
3
 72
8
 73
4
 74
0
 40
0
 40
0
 40
0
 40
0
 40
1
 40
1
 40
1
 40
1
 10
2.249758
 20
4.937983
 30
0.0
 10
2.092335
 20
5.310938
 30
0.0
 10
1.973851
 20
5.697567
 30
0.0
 10
1.941663
 20
5.943339
 30
0.0
  0
SPLINE
  5
101
100
AcDbEntity
  8
Layer_1
 62
7
100
AcDbSpline
 70
8
 71
3
 72
8
 73
4
 74
0
 40
0
 40
0
 40
0
 40
0
 40
1
 40
1
 40
1
 40
1
 10
1.941663
 20
5.943339
 30
0.0
 10
1.815659
 20
6.905430
 30
0.0
 10
1.807093
 20
7.441474
 30
0.0
 10
1.905530
 20
8.204633
 30
0.0
  0
SPLINE
  5
102
100
AcDbEntity
  8
Layer_1
 62
7
100
AcDbSpline
 70
8
 71
3
 72
8
 73
4
 74
0
 40
0
 40
0
 40
0
 40
0
 40
1
 40
1
 40
1
 40
1
 10
1.905530
 20
8.204633
 30
0.0
 10
1.961470
 20
8.638320
 30
0.0
 10
2.083035
 20
9.216137
 30
0.0
 10
2.160715
 20
9.417569
 30
0.0
  0
SPLINE
  5
103
100
AcDbEntity
  8
Layer_1
 62
7
100
AcDbSpline
 70
8
 71
3
 72
8
 73
4
 74
0
 40
0
 40
0
 40
0
 40
0
 40
1
 40
1
 40
1
 40
1
 10
2.160715
 20
9.417569
 30
0.0
 10
2.335476
 20
9.870739
 30
0.0
 10
3.087506
 20
10.396403
 30
0.0
 10
3.762925
 20
10.537503
 30
0.0
  0
SPLINE
  5
104
100
AcDbEntity
  8
Layer_1
 62
7
100
AcDbSpline
 70
8
 71
3
 72
8
 73
4
 74
0
 40
0
 40
0
 40
0
 40
0
 40
1
 40
1
 40
1
 40
1
 10
3.762925
 20
10.537503
 30
0.0
 10
4.344294
 20
10.658955
 30
0.0
 10
5.278431
 20
10.658955
 30
0.0
 10
5.859800
 20
10.537503
 30
0.0
  0
SPLINE
  5
105
100
AcDbEntity
  8
Layer_1
 62
7
100
AcDbSpline
 70
8
 71
3
 72
8
 73
4
 74
0
 40
0
 40
0
 40
0
 40
0
 40
1
 40
1
 40
1
 40
1
 10
5.859800
 20
10.537503
 30
0.0
 10
6.323786
 20
10.440573
 30
0.0
 10
6.834994
 20
10.161884
 30
0.0
 10
7.176261
 20
9.819823
 30
0.0
  0
SPLINE
  5
106
100
AcDbEntity
  8
Layer_1
 62
7
100
AcDbSpline
 70
8
 71
3
 72
8
 73
4
 74
0
 40
0
 40
0
 40
0
 40
0
 40
1
 40
1
 40
1
 40
1
 10
7.176261
 20
9.819823
 30
0.0
 10
7.384890
 20
9.610709
 30
0.0
 10
7.460048
 20
9.476907
 30
0.0
 10
7.530598
 20
9.189008
 30
0.0
  0
SPLINE
  5
107
100
AcDbEntity
  8
Layer_1
 62
7
100
AcDbSpline
 70
8
 71
3
 72
8
 73
4
 74
0
 40
0
 40
0
 40
0
 40
0
 40
1
 40
1
 40
1
 40
1
 10
7.530598
 20
9.189008
 30
0.0
 10
7.757652
 20
8.262450
 30
0.0
 10
7.830067
 20
7.420126
 30
0.0
 10
7.754032
 20
6.590050
 30
0.0
  0
SPLINE
  5
108
100
AcDbEntity
  8
Layer_1
 62
7
100
AcDbSpline
 70
8
 71
3
 72
8
 73
4
 74
0
 40
0
 40
0
 40
0
 40
0
 40
1
 40
1
 40
1
 40
1
 10
7.754032
 20
6.590050
 30
0.0
 10
7.720948
 20
6.228872
 30
0.0
 10
7.663950
 20
5.799885
 30
0.0
 10
7.634637
 20
5.691438
 30
0.0
  0
SPLINE
  5
109
100
AcDbEntity
  8
Layer_1
 62
7
100
AcDbSpline
 70
8
 71
3
 72
8
 73
4
 74
0
 40
0
 40
0
 40
0
 40
0
 40
1
 40
1
 40
1
 40
1
 10
7.634637
 20
5.691438
 30
0.0
 10
7.549200
 20
5.375351
 30
0.0
 10
7.342674
 20
4.824425
 30
0.0
 10
7.309619
 20
4.824425
 30
0.0
  0
SPLINE
  5
10a
100
AcDbEntity
  8
Layer_1
 62
7
100
AcDbSpline
 70
8
 71
3
 72
8
 73
4
 74
0
 40
0
 40
0
 40
0
 40
0
 40
1
 40
1
 40
1
 40
1
 10
7.309619
 20
4.824425
 30
0.0
 10
7.301231
 20
4.824425
 30
0.0
 10
7.285503
 20
4.829169
 30
0.0
 10
7.274669
 20
4.834968
 30
0.0
  0
SPLINE
  5
10b
100
AcDbEntity
  8
Layer_1
 62
7
100
AcDbSpline
 70
8
 71
3
 72
8
 73
4
 74
0
 40
0
 40
0
 40
0
 40
0
 40
1
 40
1
 40
1
 40
1
 10
7.274669
 20
4.834968
 30
0.0
 10
7.255878
 20
4.845024
 30
0.0
 10
7.256680
 20
4.849470
 30
0.0
 10
7.292050
 20
4.931322
 30
0.0
  0
SPLINE
  5
10c
100
AcDbEntity
  8
Layer_1
 62
7
100
AcDbSpline
 70
8
 71
3
 72
8
 73
4
 74
0
 40
0
 40
0
 40
0
 40
0
 40
1
 40
1
 40
1
 40
1
 10
7.292050
 20
4.931322
 30
0.0
 10
7.432806
 20
5.257059
 30
0.0
 10
7.575065
 20
5.701815
 30
0.0
 10
7.603756
 20
5.905835
 30
0.0
  0
SPLINE
  5
10d
100
AcDbEntity
  8
Layer_1
 62
7
100
AcDbSpline
 70
8
 71
3
 72
8
 73
4
 74
0
 40
0
 40
0
 40
0
 40
0
 40
1
 40
1
 40
1
 40
1
 10
7.603756
 20
5.905835
 30
0.0
 10
7.739167
 20
6.868746
 30
0.0
 10
7.744666
 20
7.570244
 30
0.0
 10
7.623041
 20
8.366092
 30
0.0
  0
SPLINE
  5
10e
100
AcDbEntity
  8
Layer_1
 62
7
100
AcDbSpline
 70
8
 71
3
 72
8
 73
4
 74
0
 40
0
 40
0
 40
0
 40
0
 40
1
 40
1
 40
1
 40
1
 10
7.623041
 20
8.366092
 30
0.0
 10
7.575552
 20
8.676839
 30
0.0
 10
7.463105
 20
9.201850
 30
0.0
 10
7.415107
 20
9.336932
 30
0.0
  0
SPLINE
  5
10f
100
AcDbEntity
  8
Layer_1
 62
7
100
AcDbSpline
 70
8
 71
3
 72
8
 73
4
 74
0
 40
0
 40
0
 40
0
 40
0
 40
1
 40
1
 40
1
 40
1
 10
7.415107
 20
9.336932
 30
0.0
 10
7.354794
 20
9.506674
 30
0.0
 10
7.268224
 20
9.632815
 30
0.0
 10
7.101743
 20
9.793540
 30
0.0
  0
SPLINE
  5
110
100
AcDbEntity
  8
Layer_1
 62
7
100
AcDbSpline
 70
8
 71
3
 72
8
 73
4
 74
0
 40
0
 40
0
 40
0
 40
0
 40
1
 40
1
 40
1
 40
1
 10
7.101743
 20
9.793540
 30
0.0
 10
6.791904
 20
10.092665
 30
0.0
 10
6.353686
 20
10.338733
 30
0.0
 10
5.942951
 20
10.444223
 30
0.0
  0
SPLINE
  5
111
100
AcDbEntity
  8
Layer_1
 62
7
100
AcDbSpline
 70
8
 71
3
 72
8
 73
4
 74
0
 40
0
 40
0
 40
0
 40
0
 40
1
 40
1
 40
1
 40
1
 10
5.942951
 20
10.444223
 30
0.0
 10
5.324729
 20
10.603004
 30
0.0
 10
4.184158
 20
10.592792
 30
0.0
 10
3.603029
 20
10.423273
 30
0.0
  0
SPLINE
  5
112
100
AcDbEntity
  8
Layer_1
 62
7
100
AcDbSpline
 70
8
 71
3
 72
8
 73
4
 74
0
 40
0
 40
0
 40
0
 40
0
 40
1
 40
1
 40
1
 40
1
 10
3.603029
 20
10.423273
 30
0.0
 10
3.054158
 20
10.263164
 30
0.0
 10
2.442545
 20
9.825998
 30
0.0
 10
2.262045
 20
9.464771
 30
0.0
  0
SPLINE
  5
113
100
AcDbEntity
  8
Layer_1
 62
7
100
AcDbSpline
 70
8
 71
3
 72
8
 73
4
 74
0
 40
0
 40
0
 40
0
 40
0
 40
1
 40
1
 40
1
 40
1
 10
2.262045
 20
9.464771
 30
0.0
 10
2.213225
 20
9.367068
 30
0.0
 10
2.189968
 20
9.292676
 30
0.0
 10
2.134925
 20
9.058154
 30
0.0
  0
SPLINE
  5
114
100
AcDbEntity
  8
Layer_1
 62
7
100
AcDbSpline
 70
8
 71
3
 72
8
 73
4
 74
0
 40
0
 40
0
 40
0
 40
0
 40
1
 40
1
 40
1
 40
1
 10
2.134925
 20
9.058154
 30
0.0
 10
2.030695
 20
8.614065
 30
0.0
 10
1.970943
 20
8.234873
 30
0.0
 10
1.929026
 20
7.751508
 30
0.0
  0
SPLINE
  5
115
100
AcDbEntity
  8
Layer_1
 62
7
100
AcDbSpline
 70
8
 71
3
 72
8
 73
4
 74
0
 40
0
 40
0
 40
0
 40
0
 40
1
 40
1
 40
1
 40
1
 10
1.929026
 20
7.751508
 30
0.0
 10
1.911626
 20
7.550861
 30
0.0
 10
1.911762
 20
6.871888
 30
0.0
 10
1.929235
 20
6.694217
 30
0.0
  0
SPLINE
  5
116
100
AcDbEntity
  8
Layer_1
 62
7
100
AcDbSpline
 70
8
 71
3
 72
8
 73
4
 74
0
 40
0
 40
0
 40
0
 40
0
 40
1
 40
1
 40
1
 40
1
 10
1.929235
 20
6.694217
 30
0.0
 10
1.990093
 20
6.075468
 30
0.0
 10
2.026693
 20
5.814199
 30
0.0
 10
2.075887
 20
5.647342
 30
0.0
  0
SPLINE
  5
117
100
AcDbEntity
  8
Layer_1
 62
7
100
AcDbSpline
 70
8
 71
3
 72
8
 73
4
 74
0
 40
0
 40
0
 40
0
 40
0
 40
1
 40
1
 40
1
 40
1
 10
2.075887
 20
5.647342
 30
0.0
 10
2.144717
 20
5.413884
 30
0.0
 10
2.250604
 20
5.116253
 30
0.0
 10
2.330624
 20
4.931322
 30
0.0
  0
SPLINE
  5
118
100
AcDbEntity
  8
Layer_1
 62
7
100
AcDbSpline
 70
8
 71
3
 72
8
 73
4
 74
0
 40
0
 40
0
 40
0
 40
0
 40
1
 40
1
 40
1
 40
1
 10
2.330624
 20
4.931322
 30
0.0
 10
2.366038
 20
4.849476
 30
0.0
 10
2.366844
 20
4.845024
 30
0.0
 10
2.348055
 20
4.834968
 30
0.0
  0
SPLINE
  5
119
100
AcDbEntity
  8
Layer_1
 62
7
100
AcDbSpline
 70
8
 71
3
 72
8
 73
4
 74
0
 40
0
 40
0
 40
0
 40
0
 40
1
 40
1
 40
1
 40
1
 10
2.348055
 20
4.834968
 30
0.0
 10
2.307624
 20
4.813330
 30
0.0
 10
2.298206
 20
4.823201
 30
0.0
 10
2.249756
 20
4.937983
 30
0.0
  0
SPLINE
  5
11a
100
AcDbEntity
  8
Layer_1
 62
1
100
AcDbSpline
 70
8
 71
3
 72
8
 73
4
 74
0
 40
0
 40
0
 40
0
 40
0
 40
1
 40
1
 40
1
 40
1
 10
2.283923
 20
4.873950
 30
0.0
 10
2.191556
 20
5.086801
 30
0.0
 10
2.098921
 20
5.343659
 30
0.0
 10
2.018149
 20
5.610883
 30
0.0
  0
SPLINE
  5
11b
100
AcDbEntity
  8
Layer_1
 62
1
100
AcDbSpline
 70
8
 71
3
 72
8
 73
4
 74
0
 40
0
 40
0
 40
0
 40
0
 40
1
 40
1
 40
1
 40
1
 10
2.018149
 20
5.610883
 30
0.0
 10
1.977489
 20
5.745402
 30
0.0
 10
1.966049
 20
5.805526
 30
0.0
 10
1.935892
 20
6.043175
 30
0.0
  0
SPLINE
  5
11c
100
AcDbEntity
  8
Layer_1
 62
1
100
AcDbSpline
 70
8
 71
3
 72
8
 73
4
 74
0
 40
0
 40
0
 40
0
 40
0
 40
1
 40
1
 40
1
 40
1
 10
1.935892
 20
6.043175
 30
0.0
 10
1.861798
 20
6.627070
 30
0.0
 10
1.853646
 20
6.744957
 30
0.0
 10
1.853780
 20
7.230675
 30
0.0
  0
SPLINE
  5
11d
100
AcDbEntity
  8
Layer_1
 62
1
100
AcDbSpline
 70
8
 71
3
 72
8
 73
4
 74
0
 40
0
 40
0
 40
0
 40
0
 40
1
 40
1
 40
1
 40
1
 10
1.853780
 20
7.230675
 30
0.0
 10
1.853906
 20
7.691524
 30
0.0
 10
1.862340
 20
7.834397
 30
0.0
 10
1.911269
 20
8.204633
 30
0.0
  0
SPLINE
  5
11e
100
AcDbEntity
  8
Layer_1
 62
1
100
AcDbSpline
 70
8
 71
3
 72
8
 73
4
 74
0
 40
0
 40
0
 40
0
 40
0
 40
1
 40
1
 40
1
 40
1
 10
1.911269
 20
8.204633
 30
0.0
 10
1.960737
 20
8.578943
 30
0.0
 10
2.072212
 20
9.132352
 30
0.0
 10
2.141029
 20
9.345258
 30
0.0
  0
SPLINE
  5
11f
100
AcDbEntity
  8
Layer_1
 62
1
100
AcDbSpline
 70
8
 71
3
 72
8
 73
4
 74
0
 40
0
 40
0
 40
0
 40
0
 40
1
 40
1
 40
1
 40
1
 10
2.141029
 20
9.345258
 30
0.0
 10
2.197457
 20
9.519837
 30
0.0
 10
2.301131
 20
9.673414
 30
0.0
 10
2.476717
 20
9.842534
 30
0.0
  0
SPLINE
  5
120
100
AcDbEntity
  8
Layer_1
 62
1
100
AcDbSpline
 70
8
 71
3
 72
8
 73
4
 74
0
 40
0
 40
0
 40
0
 40
0
 40
1
 40
1
 40
1
 40
1
 10
2.476717
 20
9.842534
 30
0.0
 10
2.794466
 20
10.148581
 30
0.0
 10
3.243839
 20
10.400677
 30
0.0
 10
3.660321
 20
10.506531
 30
0.0
  0
SPLINE
  5
121
100
AcDbEntity
  8
Layer_1
 62
1
100
AcDbSpline
 70
8
 71
3
 72
8
 73
4
 74
0
 40
0
 40
0
 40
0
 40
0
 40
1
 40
1
 40
1
 40
1
 10
3.660321
 20
10.506531
 30
0.0
 10
4.267490
 20
10.660849
 30
0.0
 10
5.355235
 20
10.660849
 30
0.0
 10
5.962404
 20
10.506531
 30
0.0
  0
SPLINE
  5
122
100
AcDbEntity
  8
Layer_1
 62
1
100
AcDbSpline
 70
8
 71
3
 72
8
 73
4
 74
0
 40
0
 40
0
 40
0
 40
0
 40
1
 40
1
 40
1
 40
1
 10
5.962404
 20
10.506531
 30
0.0
 10
6.378886
 20
10.400677
 30
0.0
 10
6.828259
 20
10.148581
 30
0.0
 10
7.146007
 20
9.842534
 30
0.0
  0
SPLINE
  5
123
100
AcDbEntity
  8
Layer_1
 62
1
100
AcDbSpline
 70
8
 71
3
 72
8
 73
4
 74
0
 40
0
 40
0
 40
0
 40
0
 40
1
 40
1
 40
1
 40
1
 10
7.146007
 20
9.842534
 30
0.0
 10
7.321594
 20
9.673414
 30
0.0
 10
7.425267
 20
9.519837
 30
0.0
 10
7.481696
 20
9.345258
 30
0.0
  0
SPLINE
  5
124
100
AcDbEntity
  8
Layer_1
 62
1
100
AcDbSpline
 70
8
 71
3
 72
8
 73
4
 74
0
 40
0
 40
0
 40
0
 40
0
 40
1
 40
1
 40
1
 40
1
 10
7.481696
 20
9.345258
 30
0.0
 10
7.550513
 20
9.132352
 30
0.0
 10
7.661988
 20
8.578943
 30
0.0
 10
7.711456
 20
8.204633
 30
0.0
  0
SPLINE
  5
125
100
AcDbEntity
  8
Layer_1
 62
1
100
AcDbSpline
 70
8
 71
3
 72
8
 73
4
 74
0
 40
0
 40
0
 40
0
 40
0
 40
1
 40
1
 40
1
 40
1
 10
7.711456
 20
8.204633
 30
0.0
 10
7.760385
 20
7.834397
 30
0.0
 10
7.768819
 20
7.691524
 30
0.0
 10
7.768945
 20
7.230675
 30
0.0
  0
SPLINE
  5
126
100
AcDbEntity
  8
Layer_1
 62
1
100
AcDbSpline
 70
8
 71
3
 72
8
 73
4
 74
0
 40
0
 40
0
 40
0
 40
0
 40
1
 40
1
 40
1
 40
1
 10
7.768945
 20
7.230675
 30
0.0
 10
7.769063
 20
6.744957
 30
0.0
 10
7.760927
 20
6.627070
 30
0.0
 10
7.686833
 20
6.043175
 30
0.0
  0
SPLINE
  5
127
100
AcDbEntity
  8
Layer_1
 62
1
100
AcDbSpline
 70
8
 71
3
 72
8
 73
4
 74
0
 40
0
 40
0
 40
0
 40
0
 40
1
 40
1
 40
1
 40
1
 10
7.686833
 20
6.043175
 30
0.0
 10
7.656676
 20
5.805526
 30
0.0
 10
7.645236
 20
5.745402
 30
0.0
 10
7.604576
 20
5.610883
 30
0.0
  0
SPLINE
  5
128
100
AcDbEntity
  8
Layer_1
 62
1
100
AcDbSpline
 70
8
 71
3
 72
8
 73
4
 74
0
 40
0
 40
0
 40
0
 40
0
 40
1
 40
1
 40
1
 40
1
 10
7.604576
 20
5.610883
 30
0.0
 10
7.523804
 20
5.343659
 30
0.0
 10
7.431169
 20
5.086801
 30
0.0
 10
7.338802
 20
4.873950
 30
0.0
  0
SPLINE
  5
129
100
AcDbEntity
  8
Layer_1
 62
1
100
AcDbSpline
 70
8
 71
3
 72
8
 73
4
 74
0
 40
0
 40
0
 40
0
 40
0
 40
1
 40
1
 40
1
 40
1
 10
7.338802
 20
4.873950
 30
0.0
 10
7.318216
 20
4.826511
 30
0.0
 10
7.316267
 20
4.825010
 30
0.0
 10
7.290517
 20
4.836743
 30
0.0
  0
SPLINE
  5
12a
100
AcDbEntity
  8
Layer_1
 62
1
100
AcDbSpline
 70
8
 71
3
 72
8
 73
4
 74
0
 40
0
 40
0
 40
0
 40
0
 40
1
 40
1
 40
1
 40
1
 10
7.290517
 20
4.836743
 30
0.0
 10
7.275758
 20
4.843467
 30
0.0
 10
7.265853
 20
4.853994
 30
0.0
 10
7.268506
 20
4.860135
 30
0.0
  0
SPLINE
  5
12b
100
AcDbEntity
  8
Layer_1
 62
1
100
AcDbSpline
 70
8
 71
3
 72
8
 73
4
 74
0
 40
0
 40
0
 40
0
 40
0
 40
1
 40
1
 40
1
 40
1
 10
7.268506
 20
4.860135
 30
0.0
 10
7.378298
 20
5.114258
 30
0.0
 10
7.528623
 20
5.537665
 30
0.0
 10
7.576481
 20
5.727578
 30
0.0
  0
SPLINE
  5
12c
100
AcDbEntity
  8
Layer_1
 62
1
100
AcDbSpline
 70
8
 71
3
 72
8
 73
4
 74
0
 40
0
 40
0
 40
0
 40
0
 40
1
 40
1
 40
1
 40
1
 10
7.576481
 20
5.727578
 30
0.0
 10
7.598639
 20
5.815509
 30
0.0
 10
7.623063
 20
5.985353
 30
0.0
 10
7.659313
 20
6.303592
 30
0.0
  0
SPLINE
  5
12d
100
AcDbEntity
  8
Layer_1
 62
1
100
AcDbSpline
 70
8
 71
3
 72
8
 73
4
 74
0
 40
0
 40
0
 40
0
 40
0
 40
1
 40
1
 40
1
 40
1
 10
7.659313
 20
6.303592
 30
0.0
 10
7.734003
 20
6.959298
 30
0.0
 10
7.737063
 20
7.458846
 30
0.0
 10
7.670034
 20
8.053592
 30
0.0
  0
SPLINE
  5
12e
100
AcDbEntity
  8
Layer_1
 62
1
100
AcDbSpline
 70
8
 71
3
 72
8
 73
4
 74
0
 40
0
 40
0
 40
0
 40
0
 40
1
 40
1
 40
1
 40
1
 10
7.670034
 20
8.053592
 30
0.0
 10
7.619165
 20
8.504950
 30
0.0
 10
7.494191
 20
9.136247
 30
0.0
 10
7.409219
 20
9.371077
 30
0.0
  0
SPLINE
  5
12f
100
AcDbEntity
  8
Layer_1
 62
1
100
AcDbSpline
 70
8
 71
3
 72
8
 73
4
 74
0
 40
0
 40
0
 40
0
 40
0
 40
1
 40
1
 40
1
 40
1
 10
7.409219
 20
9.371077
 30
0.0
 10
7.253435
 20
9.801609
 30
0.0
 10
6.530589
 20
10.320814
 30
0.0
 10
5.887907
 20
10.463805
 30
0.0
  0
SPLINE
  5
130
100
AcDbEntity
  8
Layer_1
 62
1
100
AcDbSpline
 70
8
 71
3
 72
8
 73
4
 74
0
 40
0
 40
0
 40
0
 40
0
 40
1
 40
1
 40
1
 40
1
 10
5.887907
 20
10.463805
 30
0.0
 10
5.286572
 20
10.597596
 30
0.0
 10
4.336153
 20
10.597596
 30
0.0
 10
3.734818
 20
10.463805
 30
0.0
  0
SPLINE
  5
131
100
AcDbEntity
  8
Layer_1
 62
1
100
AcDbSpline
 70
8
 71
3
 72
8
 73
4
 74
0
 40
0
 40
0
 40
0
 40
0
 40
1
 40
1
 40
1
 40
1
 10
3.734818
 20
10.463805
 30
0.0
 10
3.383090
 20
10.385549
 30
0.0
 10
2.983954
 20
10.185193
 30
0.0
 10
2.655113
 20
9.921821
 30
0.0
  0
SPLINE
  5
132
100
AcDbEntity
  8
Layer_1
 62
1
100
AcDbSpline
 70
8
 71
3
 72
8
 73
4
 74
0
 40
0
 40
0
 40
0
 40
0
 40
1
 40
1
 40
1
 40
1
 10
2.655113
 20
9.921821
 30
0.0
 10
2.440466
 20
9.749909
 30
0.0
 10
2.276665
 20
9.545626
 30
0.0
 10
2.213505
 20
9.371077
 30
0.0
  0
SPLINE
  5
133
100
AcDbEntity
  8
Layer_1
 62
1
100
AcDbSpline
 70
8
 71
3
 72
8
 73
4
 74
0
 40
0
 40
0
 40
0
 40
0
 40
1
 40
1
 40
1
 40
1
 10
2.213505
 20
9.371077
 30
0.0
 10
2.157605
 20
9.216589
 30
0.0
 10
2.049784
 20
8.730480
 30
0.0
 10
1.999837
 20
8.407758
 30
0.0
  0
SPLINE
  5
134
100
AcDbEntity
  8
Layer_1
 62
1
100
AcDbSpline
 70
8
 71
3
 72
8
 73
4
 74
0
 40
0
 40
0
 40
0
 40
0
 40
1
 40
1
 40
1
 40
1
 10
1.999837
 20
8.407758
 30
0.0
 10
1.886454
 20
7.675168
 30
0.0
 10
1.875996
 20
7.071020
 30
0.0
 10
1.963412
 20
6.303592
 30
0.0
  0
SPLINE
  5
135
100
AcDbEntity
  8
Layer_1
 62
1
100
AcDbSpline
 70
8
 71
3
 72
8
 73
4
 74
0
 40
0
 40
0
 40
0
 40
0
 40
1
 40
1
 40
1
 40
1
 10
1.963412
 20
6.303592
 30
0.0
 10
1.999662
 20
5.985353
 30
0.0
 10
2.024086
 20
5.815509
 30
0.0
 10
2.046244
 20
5.727578
 30
0.0
  0
SPLINE
  5
136
100
AcDbEntity
  8
Layer_1
 62
1
100
AcDbSpline
 70
8
 71
3
 72
8
 73
4
 74
0
 40
0
 40
0
 40
0
 40
0
 40
1
 40
1
 40
1
 40
1
 10
2.046244
 20
5.727578
 30
0.0
 10
2.094101
 20
5.537665
 30
0.0
 10
2.244426
 20
5.114258
 30
0.0
 10
2.354219
 20
4.860135
 30
0.0
  0
SPLINE
  5
137
100
AcDbEntity
  8
Layer_1
 62
1
100
AcDbSpline
 70
8
 71
3
 72
8
 73
4
 74
0
 40
0
 40
0
 40
0
 40
0
 40
1
 40
1
 40
1
 40
1
 10
2.354219
 20
4.860135
 30
0.0
 10
2.356872
 20
4.853994
 30
0.0
 10
2.346967
 20
4.843467
 30
0.0
 10
2.332209
 20
4.836743
 30
0.0
  0
SPLINE
  5
138
100
AcDbEntity
  8
Layer_1
 62
1
100
AcDbSpline
 70
8
 71
3
 72
8
 73
4
 74
0
 40
0
 40
0
 40
0
 40
0
 40
1
 40
1
 40
1
 40
1
 10
2.332209
 20
4.836743
 30
0.0
 10
2.306457
 20
4.825010
 30
0.0
 10
2.304509
 20
4.826511
 30
0.0
 10
2.283923
 20
4.873950
 30
0.0
  0
LWPOLYLINE
  5
139
100
AcDbEntity
  8
Layer_1
 62
7
100
AcDbPolyline
 90
1
 70
1
 10
2.249756
 20
4.937983
 30
0.0
  0
LWPOLYLINE
  5
13a
100
AcDbEntity
  8
Layer_1
 62
1
100
AcDbPolyline
 90
1
 70
1
 10
2.283923
 20
4.873950
 30
0.0
  0
ENDSEC
  0
SECTION
  2
OBJECTS
  0
DICTIONARY
  5
C
330
0
100
AcDbDictionary
  3
ACAD_GROUP
350
D
  3
ACAD_MLINESTYLE
350
17
  0
DICTIONARY
  5
D
330
C
100
AcDbDictionary
  0
DICTIONARY
  5
1A
330
C
100
AcDbDictionary
  0
DICTIONARY
  5
17
330
C
100
AcDbDictionary
  3
STANDARD
350
18
  0
DICTIONARY
  5
19
330
C
100
AcDbDictionary
  0
ENDSEC
  0
EOF
