  0
SECTION
  2
HEADER
  9
$ACADVER
  1
AC1014
  9
$HANDSEED
  5
FFFF
  9
$MEASUREMENT
 70
     1
  0
ENDSEC
  0
SECTION
  2
TABLES
  0
TABLE
  2
VPORT
  5
8
330
0
100
AcDbSymbolTable
 70
     4
  0
VPORT
  5
2E
330
8
100
AcDbSymbolTableRecord
100
AcDbViewportTableRecord
  2
*ACTIVE
 70
     0
 10
0.0
 20
0.0
 11
1.0
 21
1.0
 12
210.0
 22
148.5
 13
0.0
 23
0.0
 14
10.0
 24
10.0
 15
10.0
 25
10.0
 16
0.0
 26
0.0
 36
1.0
 17
0.0
 27
0.0
 37
0.0
 40
341.0
 41
1.24
 42
50.0
 43
0.0
 44
0.0
 50
0.0
 51
0.0
 71
     0
 72
   100
 73
     1
 74
     3
 75
     0
 76
     0
 77
     0
 78
     0
  0
ENDTAB
  0
TABLE
  2
LTYPE
  5
5
330
0
100
AcDbSymbolTable
 70
     1
  0
LTYPE
  5
14
330
5
100
AcDbSymbolTableRecord
100
AcDbLinetypeTableRecord
  2
BYBLOCK
 70
     0
  3

 72
    65
 73
     0
 40
0.0
  0
LTYPE
  5
15
330
5
100
AcDbSymbolTableRecord
100
AcDbLinetypeTableRecord
  2
BYLAYER
 70
     0
  3

 72
    65
 73
     0
 40
0.0
  0
LTYPE
  5
16
330
5
100
AcDbSymbolTableRecord
100
AcDbLinetypeTableRecord
  2
CONTINUOUS
 70
     0
  3
Solid line
 72
    65
 73
     0
 40
0.0
  0
ENDTAB
  0
TABLE
  2
LAYER
  5
2
100
AcDbSymbolTable
 70
2
  0
LAYER
  5
50
100
AcDbSymbolTableRecord
100
AcDbLayerTableRecord
  2
0
 70
0
  6
CONTINUOUS
  0
LAYER
  5
51
100
AcDbSymbolTableRecord
100
AcDbLayerTableRecord
  2
Layer_1
 70
0
  6
CONTINUOUS
  0
ENDTAB
  0
TABLE
  2
STYLE
  5
3
330
0
100
AcDbSymbolTable
 70
     1
  0
STYLE
  5
11
330
3
100
AcDbSymbolTableRecord
100
AcDbTextStyleTableRecord
  2
STANDARD
 70
     0
 40
0.0
 41
1.0
 50
0.0
 71
     0
 42
2.5
  3
txt
  4

  0
ENDTAB
  0
TABLE
  2
VIEW
  5
6
330
0
100
AcDbSymbolTable
 70
     0
  0
ENDTAB
  0
TABLE
  2
UCS
  5
7
330
0
100
AcDbSymbolTable
 70
     0
  0
ENDTAB
  0
TABLE
  2
APPID
  5
9
330
0
100
AcDbSymbolTable
 70
     2
  0
APPID
  5
12
330
9
100
AcDbSymbolTableRecord
100
AcDbRegAppTableRecord
  2
ACAD
 70
     0
  0
ENDTAB
  0
TABLE
  2
DIMSTYLE
  5
A
330
0
100
AcDbSymbolTable
 70
     1
  0
DIMSTYLE
105
27
330
A
100
AcDbSymbolTableRecord
100
AcDbDimStyleTableRecord
  2
ISO-25
 70
     0
  3

  4

  5

  6

  7

 40
1.0
 41
2.5
 42
0.625
 43
3.75
 44
1.25
 45
0.0
 46
0.0
 47
0.0
 48
0.0
140
2.5
141
2.5
142
0.0
143
0.03937007874016
144
1.0
145
0.0
146
1.0
147
0.625
 71
     0
 72
     0
 73
     0
 74
     0
 75
     0
 76
     0
 77
     1
 78
     8
170
     0
171
     3
172
     1
173
     0
174
     0
175
     0
176
     0
177
     0
178
     0
270
     2
271
     2
272
     2
273
     2
274
     3
340
11
275
     0
280
     0
281
     0
282
     0
283
     0
284
     8
285
     0
286
     0
287
     3
288
     0
  0
ENDTAB
  0
TABLE
  2
BLOCK_RECORD
  5
1
330
0
100
AcDbSymbolTable
 70
     1
  0
BLOCK_RECORD
  5
1F
330
1
100
AcDbSymbolTableRecord
100
AcDbBlockTableRecord
  2
*MODEL_SPACE
  0
BLOCK_RECORD
  5
1B
330
1
100
AcDbSymbolTableRecord
100
AcDbBlockTableRecord
  2
*PAPER_SPACE
  0
ENDTAB
  0
ENDSEC
  0
SECTION
  2
BLOCKS
  0
BLOCK
  5
20
330
1F
100
AcDbEntity
  8
0
100
AcDbBlockBegin
  2
*MODEL_SPACE
 70
     0
 10
0.0
 20
0.0
 30
0.0
  3
*MODEL_SPACE
  1

  0
ENDBLK
  5
21
330
1F
100
AcDbEntity
  8
0
100
AcDbBlockEnd
  0
BLOCK
  5
1C
330
1B
100
AcDbEntity
 67
     1
  8
0
100
AcDbBlockBegin
  2
*PAPER_SPACE
  1

  0
ENDBLK
  5
1D
330
1B
100
AcDbEntity
 67
     1
  8
0
100
AcDbBlockEnd
  0
ENDSEC
  0
SECTION
  2
ENTITIES
  0
SPLINE
  5
100
100
AcDbEntity
  8
Layer_1
 62
7
100
AcDbSpline
 70
0
 71
3
 72
85
 73
81
 74
79
 40
0.000000
 40
0.000000
 40
0.000000
 40
0.000000
 40
0.398230
 40
0.760704
 40
1.053747
 40
1.902510
 40
2.607982
 40
3.322357
 40
3.790654
 40
4.243217
 40
4.563241
 40
5.137350
 40
5.848052
 40
6.570313
 40
7.247995
 40
7.999215
 40
8.676897
 40
9.172815
 40
9.690929
 40
10.193128
 40
10.449234
 40
10.670917
 40
10.927718
 40
11.845840
 40
12.710003
 40
13.547242
 40
13.918707
 40
14.249897
 40
14.454119
 40
14.837026
 40
15.207830
 40
15.381834
 40
15.392316
 40
15.405431
 40
15.418565
 40
15.434807
 40
15.461195
 40
15.525157
 40
15.902956
 40
16.271984
 40
16.549993
 40
17.443712
 40
18.237469
 40
19.019061
 40
19.384561
 40
19.761284
 40
20.012439
 40
20.185775
 40
20.363348
 40
20.571310
 40
21.015952
 40
21.472186
 40
21.912335
 40
22.671600
 40
23.531741
 40
24.268483
 40
24.869691
 40
25.464098
 40
25.946861
 40
26.052482
 40
26.180253
 40
26.373877
 40
26.812021
 40
27.240266
 40
27.697783
 40
28.021796
 40
28.446792
 40
28.755502
 40
29.267704
 40
29.600392
 40
29.813566
 40
30.074084
 40
30.341318
 40
30.573874
 40
30.637847
 40
30.664238
 40
30.680479
 40
30.714232
 40
30.754180
 40
30.845053
 40
30.845053
 40
30.845053
 40
30.845053
 10
1.521589
 20
5.376863
 30
0.0
 10
1.472437
 20
5.500180
 30
0.0
 10
1.378546
 20
5.735743
 30
0.0
 10
1.272583
 20
6.071334
 30
0.0
 10
1.174542
 20
6.563702
 30
0.0
 10
1.121265
 20
7.178405
 30
0.0
 10
1.100458
 20
7.935263
 30
0.0
 10
1.160914
 20
8.562897
 30
0.0
 10
1.245742
 20
9.101982
 30
0.0
 10
1.333884
 20
9.504788
 30
0.0
 10
1.434597
 20
9.947130
 30
0.0
 10
1.792107
 20
10.373044
 30
0.0
 10
2.347461
 20
10.749721
 30
0.0
 10
3.013837
 20
11.004946
 30
0.0
 10
3.732518
 20
11.069056
 30
0.0
 10
4.433905
 20
11.069480
 30
0.0
 10
5.076792
 20
11.010680
 30
0.0
 10
5.616447
 20
10.834733
 30
0.0
 10
6.062291
 20
10.590821
 30
0.0
 10
6.395172
 20
10.322386
 30
0.0
 10
6.617569
 20
10.081143
 30
0.0
 10
6.739449
 20
9.865671
 30
0.0
 10
6.861685
 20
9.414483
 30
0.0
 10
6.990225
 20
8.746951
 30
0.0
 10
7.069724
 20
7.875304
 30
0.0
 10
7.045946
 20
7.182767
 30
0.0
 10
6.989143
 20
6.673008
 30
0.0
 10
6.951356
 20
6.372138
 30
0.0
 10
6.899792
 20
6.072910
 30
0.0
 10
6.800740
 20
5.749775
 30
0.0
 10
6.667087
 20
5.529166
 30
0.0
 10
6.636999
 20
5.255151
 30
0.0
 10
6.570078
 20
5.264614
 30
0.0
 10
6.558415
 20
5.268434
 30
0.0
 10
6.545513
 20
5.273534
 30
0.0
 10
6.528986
 20
5.286750
 30
0.0
 10
6.545655
 20
5.325157
 30
0.0
 10
6.600644
 20
5.460965
 30
0.0
 10
6.704641
 20
5.720615
 30
0.0
 10
6.809871
 20
6.042717
 30
0.0
 10
6.924776
 20
6.544898
 30
0.0
 10
6.973890
 20
7.200301
 30
0.0
 10
6.990778
 20
8.023784
 30
0.0
 10
6.922323
 20
8.668938
 30
0.0
 10
6.832024
 20
9.168945
 30
0.0
 10
6.761203
 20
9.492139
 30
0.0
 10
6.701867
 20
9.753303
 30
0.0
 10
6.620143
 20
9.937976
 30
0.0
 10
6.512739
 20
10.091381
 30
0.0
 10
6.320983
 20
10.291721
 30
0.0
 10
6.030100
 20
10.522740
 30
0.0
 10
5.639038
 20
10.742816
 30
0.0
 10
5.117428
 20
10.932810
 30
0.0
 10
4.427988
 20
11.002281
 30
0.0
 10
3.644251
 20
10.995929
 30
0.0
 10
2.909292
 20
10.907516
 30
0.0
 10
2.315035
 20
10.639683
 30
0.0
 10
1.856751
 20
10.318362
 30
0.0
 10
1.582552
 20
10.020263
 30
0.0
 10
1.486599
 20
9.800787
 30
0.0
 10
1.446234
 20
9.664102
 30
0.0
 10
1.387418
 20
9.417868
 30
0.0
 10
1.312527
 20
9.072347
 30
0.0
 10
1.246105
 20
8.635997
 30
0.0
 10
1.197868
 20
8.235190
 30
0.0
 10
1.187205
 20
7.832885
 30
0.0
 10
1.186893
 20
7.480383
 30
0.0
 10
1.199281
 20
7.064945
 30
0.0
 10
1.248594
 20
6.683259
 30
0.0
 10
1.290196
 20
6.332841
 30
0.0
 10
1.347602
 20
6.069887
 30
0.0
 10
1.427277
 20
5.835196
 30
0.0
 10
1.509127
 20
5.597910
 30
0.0
 10
1.582772
 20
5.418257
 30
0.0
 10
1.620813
 20
5.325386
 30
0.0
 10
1.637253
 20
5.286492
 30
0.0
 10
1.615225
 20
5.269474
 30
0.0
 10
1.582645
 20
5.257475
 30
0.0
 10
1.547618
 20
5.311424
 30
0.0
 10
1.532257
 20
5.350039
 30
0.0
 10
1.521587
 20
5.376863
 30
0.0
 11
1.521589
 21
5.376863
 31
0.0
 11
1.378900
 21
5.748652
 31
0.0
 11
1.272693
 21
6.095217
 31
0.0
 11
1.213494
 21
6.382218
 31
0.0
 11
1.126249
 21
7.226485
 31
0.0
 11
1.114978
 21
7.931868
 31
0.0
 11
1.177361
 21
8.643513
 31
0.0
 11
1.251120
 21
9.105965
 31
0.0
 11
1.344293
 21
9.548833
 31
0.0
 11
1.432546
 21
9.856448
 31
0.0
 11
1.775512
 21
10.316855
 31
0.0
 11
2.358018
 21
10.724023
 31
0.0
 11
3.034756
 21
10.976383
 31
0.0
 11
3.707583
 21
11.057351
 31
0.0
 11
4.458804
 21
11.057351
 31
0.0
 11
5.131631
 21
10.976383
 31
0.0
 11
5.603315
 21
10.823251
 31
0.0
 11
6.058221
 21
10.575255
 31
0.0
 11
6.448092
 21
10.258703
 31
0.0
 11
6.617004
 21
10.066196
 31
0.0
 11
6.725571
 21
9.872918
 31
0.0
 11
6.802429
 21
9.627888
 31
0.0
 11
6.978166
 21
8.726741
 31
0.0
 11
7.052185
 21
7.865754
 31
0.0
 11
7.025863
 21
7.028929
 31
0.0
 11
6.986719
 21
6.659532
 31
0.0
 11
6.943099
 21
6.331228
 31
0.0
 11
6.906469
 21
6.130317
 31
0.0
 11
6.791578
 21
5.765053
 31
0.0
 11
6.661419
 21
5.417844
 31
0.0
 11
6.581450
 21
5.263305
 31
0.0
 11
6.571068
 21
5.264749
 31
0.0
 11
6.558512
 21
5.268537
 31
0.0
 11
6.546500
 21
5.273848
 31
0.0
 11
6.534795
 21
5.285108
 31
0.0
 11
6.539479
 21
5.311077
 31
0.0
 11
6.563881
 21
5.370201
 31
0.0
 11
6.700876
 21
5.722287
 31
0.0
 11
6.813302
 21
6.073773
 31
0.0
 11
6.875587
 21
6.344715
 31
0.0
 11
6.967798
 21
7.233664
 31
0.0
 11
6.974019
 21
8.027397
 31
0.0
 11
6.894872
 21
8.804971
 31
0.0
 11
6.830523
 21
9.164762
 31
0.0
 11
6.751626
 21
9.533131
 31
0.0
 11
6.686938
 21
9.775812
 31
0.0
 11
6.615886
 21
9.933916
 31
0.0
 11
6.515405
 21
10.080327
 31
0.0
 11
6.373574
 21
10.232419
 31
0.0
 11
6.026715
 21
10.510617
 31
0.0
 11
5.628905
 21
10.733995
 31
0.0
 11
5.214782
 21
10.883103
 31
0.0
 11
4.462510
 21
10.985911
 31
0.0
 11
3.602403
 21
10.978210
 31
0.0
 11
2.874860
 21
10.862153
 31
0.0
 11
2.323366
 21
10.622765
 31
0.0
 11
1.839790
 21
10.277117
 31
0.0
 11
1.533877
 21
9.903651
 31
0.0
 11
1.491453
 21
9.806924
 31
0.0
 11
1.453327
 21
9.684973
 31
0.0
 11
1.406756
 21
9.497033
 31
0.0
 11
1.316365
 21
9.068315
 31
0.0
 11
1.249706
 21
8.645290
 31
0.0
 11
1.200857
 21
8.190388
 31
0.0
 11
1.189295
 21
7.866581
 31
0.0
 11
1.189379
 21
7.441586
 31
0.0
 11
1.201066
 21
7.133096
 31
0.0
 11
1.255203
 21
6.623764
 31
0.0
 11
1.301357
 21
6.294292
 31
0.0
 11
1.347718
 21
6.086221
 31
0.0
 11
1.426570
 21
5.837923
 31
0.0
 11
1.516143
 21
5.586148
 31
0.0
 11
1.602455
 21
5.370201
 31
0.0
 11
1.626889
 21
5.311080
 31
0.0
 11
1.631587
 21
5.285109
 31
0.0
 11
1.619886
 21
5.273848
 31
0.0
 11
1.587198
 21
5.265431
 31
0.0
 11
1.559621
 21
5.294332
 31
0.0
 11
1.521587
 21
5.376863
 31
0.0
  0
LWPOLYLINE
  5
101
100
AcDbEntity
  8
Layer_1
 62
7
100
AcDbPolyline
 90
1
 70
1
 10
1.521587
 20
5.376863
 30
0.0
  0
SPLINE
  5
102
100
AcDbEntity
  8
Layer_1
 62
7
100
AcDbSpline
 70
0
 71
3
 72
100
 73
96
 74
94
 40
0.000000
 40
0.000000
 40
0.000000
 40
0.000000
 40
0.244265
 40
0.508045
 40
0.783764
 40
0.907223
 40
1.034910
 40
1.224464
 40
1.687097
 40
2.021963
 40
2.415982
 40
2.791059
 40
3.075811
 40
3.392582
 40
3.812606
 40
4.239713
 40
4.556912
 40
4.740977
 40
4.937703
 40
5.162618
 40
5.618057
 40
6.084407
 40
6.532061
 40
7.271021
 40
8.109578
 40
8.848538
 40
9.296192
 40
9.762542
 40
10.217981
 40
10.442896
 40
10.639622
 40
10.823687
 40
11.140886
 40
11.567994
 40
11.988018
 40
12.304788
 40
12.589540
 40
12.964617
 40
13.358637
 40
13.693502
 40
14.156135
 40
14.345689
 40
14.473376
 40
14.596835
 40
14.872553
 40
15.136334
 40
15.380599
 40
15.417553
 40
15.433904
 40
15.454232
 40
15.469211
 40
15.480751
 40
15.488156
 40
15.806472
 40
16.144962
 40
16.409172
 40
16.529148
 40
16.718152
 40
16.991347
 40
17.606418
 40
18.171143
 40
18.745124
 40
19.240281
 40
19.731490
 40
20.089702
 40
20.636575
 40
21.319965
 40
22.012549
 40
22.710113
 40
23.479525
 40
24.177090
 40
24.558571
 40
24.971027
 40
25.393791
 40
25.660069
 40
25.901275
 40
26.106656
 40
26.362856
 40
26.729324
 40
27.094045
 40
27.799095
 40
28.478976
 40
29.204840
 40
29.478035
 40
29.667039
 40
29.787015
 40
30.051225
 40
30.389715
 40
30.708031
 40
30.715436
 40
30.726975
 40
30.741954
 40
30.762283
 40
30.778634
 40
30.815588
 40
30.815588
 40
30.815588
 40
30.815588
 10
1.555754
 20
5.312829
 30
0.0
 10
1.524441
 20
5.388001
 30
0.0
 10
1.459312
 20
5.544350
 30
0.0
 10
1.371741
 20
5.790619
 30
0.0
 10
1.303744
 20
6.000843
 30
0.0
 10
1.254830
 20
6.169678
 30
0.0
 10
1.228886
 20
6.314465
 30
0.0
 10
1.196450
 20
6.572366
 30
0.0
 10
1.153876
 20
6.898686
 30
0.0
 10
1.125166
 20
7.295133
 30
0.0
 10
1.125713
 20
7.663258
 30
0.0
 10
1.125654
 20
8.014568
 30
0.0
 10
1.144148
 20
8.339810
 30
0.0
 10
1.185739
 20
8.677898
 30
0.0
 10
1.246503
 20
9.061281
 30
0.0
 10
1.325333
 20
9.441059
 30
0.0
 10
1.391694
 20
9.744126
 30
0.0
 10
1.482096
 20
9.959990
 30
0.0
 10
1.597948
 20
10.126855
 30
0.0
 10
1.798794
 20
10.340118
 30
0.0
 10
2.100599
 20
10.578035
 30
0.0
 10
2.499681
 20
10.803056
 30
0.0
 10
3.020776
 20
10.991989
 30
0.0
 10
3.697701
 20
11.064178
 30
0.0
 10
4.468687
 20
11.064178
 30
0.0
 10
5.145611
 20
10.991989
 30
0.0
 10
5.666706
 20
10.803056
 30
0.0
 10
6.065788
 20
10.578035
 30
0.0
 10
6.367593
 20
10.340118
 30
0.0
 10
6.568439
 20
10.126855
 30
0.0
 10
6.684291
 20
9.959990
 30
0.0
 10
6.774693
 20
9.744126
 30
0.0
 10
6.841054
 20
9.441059
 30
0.0
 10
6.919884
 20
9.061281
 30
0.0
 10
6.980649
 20
8.677898
 30
0.0
 10
7.022239
 20
8.339810
 30
0.0
 10
7.040732
 20
8.014568
 30
0.0
 10
7.040677
 20
7.663258
 30
0.0
 10
7.041211
 20
7.295133
 30
0.0
 10
7.012510
 20
6.898686
 30
0.0
 10
6.969932
 20
6.572367
 30
0.0
 10
6.937507
 20
6.314464
 30
0.0
 10
6.911542
 20
6.169680
 30
0.0
 10
6.862722
 20
6.000832
 30
0.0
 10
6.793938
 20
5.790711
 30
0.0
 10
6.709453
 20
5.544040
 30
0.0
 10
6.631965
 20
5.377311
 30
0.0
 10
6.601078
 20
5.284790
 30
0.0
 10
6.581215
 20
5.265081
 30
0.0
 10
6.563369
 20
5.275112
 30
0.0
 10
6.550495
 20
5.282094
 30
0.0
 10
6.540943
 20
5.289972
 30
0.0
 10
6.532642
 20
5.405828
 30
0.0
 10
6.686691
 20
5.594549
 30
0.0
 10
6.758999
 20
5.891046
 30
0.0
 10
6.841450
 20
6.118644
 30
0.0
 10
6.876583
 20
6.306699
 30
0.0
 10
6.902621
 20
6.498995
 30
0.0
 10
6.945603
 20
6.855502
 30
0.0
 10
6.989424
 20
7.338205
 30
0.0
 10
6.993486
 20
7.923587
 30
0.0
 10
6.950656
 20
8.466908
 30
0.0
 10
6.875703
 20
8.982494
 30
0.0
 10
6.784105
 20
9.419548
 30
0.0
 10
6.689402
 20
9.880983
 30
0.0
 10
6.344721
 20
10.308670
 30
0.0
 10
5.815744
 20
10.675418
 30
0.0
 10
5.165263
 20
10.935543
 30
0.0
 10
4.443441
 20
11.004719
 30
0.0
 10
3.722852
 20
11.005282
 30
0.0
 10
3.105447
 20
10.944283
 30
0.0
 10
2.629685
 20
10.791977
 30
0.0
 10
2.267549
 20
10.606509
 30
0.0
 10
1.962632
 20
10.399657
 30
0.0
 10
1.732485
 20
10.190644
 30
0.0
 10
1.580650
 20
10.006427
 30
0.0
 10
1.469691
 20
9.797555
 30
0.0
 10
1.408021
 20
9.526962
 30
0.0
 10
1.334134
 20
9.206790
 30
0.0
 10
1.248842
 20
8.735330
 30
0.0
 10
1.181736
 20
8.155238
 30
0.0
 10
1.169204
 20
7.450494
 30
0.0
 10
1.216226
 20
6.892140
 30
0.0
 10
1.263781
 20
6.498998
 30
0.0
 10
1.289803
 20
6.306699
 30
0.0
 10
1.324939
 20
6.118644
 30
0.0
 10
1.407387
 20
5.891046
 30
0.0
 10
1.479697
 20
5.594549
 30
0.0
 10
1.633744
 20
5.405828
 30
0.0
 10
1.625444
 20
5.289972
 30
0.0
 10
1.615892
 20
5.282094
 30
0.0
 10
1.603020
 20
5.275112
 30
0.0
 10
1.585168
 20
5.265081
 30
0.0
 10
1.565329
 20
5.284792
 30
0.0
 10
1.559674
 20
5.301350
 30
0.0
 10
1.555754
 20
5.312829
 30
0.0
 11
1.555754
 21
5.312829
 31
0.0
 11
1.463747
 21
5.539104
 31
0.0
 11
1.374257
 21
5.787240
 31
0.0
 11
1.289980
 21
6.049763
 31
0.0
 11
1.257285
 21
6.168813
 31
0.0
 11
1.233416
 21
6.294250
 31
0.0
 11
1.207723
 21
6.482055
 31
0.0
 11
1.153474
 21
6.941496
 31
0.0
 11
1.130374
 21
7.275564
 31
0.0
 11
1.125611
 21
7.669555
 31
0.0
 11
1.129698
 21
8.044609
 31
0.0
 11
1.146477
 21
8.328866
 31
0.0
 11
1.183100
 21
8.643513
 31
0.0
 11
1.249360
 21
9.058278
 31
0.0
 11
1.333700
 21
9.476975
 31
0.0
 11
1.412860
 21
9.784138
 31
0.0
 11
1.485950
 21
9.953069
 31
0.0
 11
1.596019
 21
10.116121
 31
0.0
 11
1.748548
 21
10.281414
 31
0.0
 11
2.104079
 21
10.566059
 31
0.0
 11
2.510800
 21
10.794227
 31
0.0
 11
2.932152
 21
10.945410
 31
0.0
 11
3.663915
 21
11.048289
 31
0.0
 11
4.502472
 21
11.048289
 31
0.0
 11
5.234235
 21
10.945410
 31
0.0
 11
5.655588
 21
10.794227
 31
0.0
 11
6.062309
 21
10.566059
 31
0.0
 11
6.417839
 21
10.281414
 31
0.0
 11
6.570368
 21
10.116121
 31
0.0
 11
6.680437
 21
9.953069
 31
0.0
 11
6.753527
 21
9.784138
 31
0.0
 11
6.832687
 21
9.476975
 31
0.0
 11
6.917027
 21
9.058278
 31
0.0
 11
6.983287
 21
8.643513
 31
0.0
 11
7.019910
 21
8.328866
 31
0.0
 11
7.036689
 21
8.044609
 31
0.0
 11
7.040776
 21
7.669555
 31
0.0
 11
7.036006
 21
7.275564
 31
0.0
 11
7.012909
 21
6.941496
 31
0.0
 11
6.958664
 21
6.482055
 31
0.0
 11
6.932971
 21
6.294250
 31
0.0
 11
6.909103
 21
6.168813
 31
0.0
 11
6.876407
 21
6.049763
 31
0.0
 11
6.792130
 21
5.787240
 31
0.0
 11
6.702640
 21
5.539104
 31
0.0
 11
6.610633
 21
5.312829
 31
0.0
 11
6.594688
 21
5.279492
 31
0.0
 11
6.581736
 21
5.269512
 31
0.0
 11
6.562348
 21
5.275622
 31
0.0
 11
6.549492
 21
5.283311
 31
0.0
 11
6.541585
 21
5.291715
 31
0.0
 11
6.540337
 21
5.299014
 31
0.0
 11
6.658344
 21
5.594648
 31
0.0
 11
6.771595
 21
5.913631
 31
0.0
 11
6.848312
 21
6.166458
 31
0.0
 11
6.871580
 21
6.284155
 31
0.0
 11
6.898482
 21
6.471235
 31
0.0
 11
6.931144
 21
6.742471
 31
0.0
 11
6.982014
 21
7.355434
 31
0.0
 11
6.985474
 21
7.920149
 31
0.0
 11
6.941865
 21
8.492471
 31
0.0
 11
6.870520
 21
8.982461
 31
0.0
 11
6.775130
 21
9.464319
 31
0.0
 11
6.681050
 21
9.809956
 31
0.0
 11
6.360217
 21
10.252828
 31
0.0
 11
5.805170
 21
10.651507
 31
0.0
 11
5.159738
 21
10.902684
 31
0.0
 11
4.467900
 21
10.991878
 31
0.0
 11
3.698487
 21
10.991878
 31
0.0
 11
3.006649
 21
10.902684
 31
0.0
 11
2.643478
 21
10.785917
 31
0.0
 11
2.274857
 21
10.600879
 31
0.0
 11
1.926944
 21
10.360700
 31
0.0
 11
1.731090
 21
10.180298
 31
0.0
 11
1.580199
 21
9.992116
 31
0.0
 11
1.485337
 21
9.809956
 31
0.0
 11
1.416196
 21
9.563262
 31
0.0
 11
1.336840
 21
9.205489
 31
0.0
 11
1.271668
 21
8.846638
 31
0.0
 11
1.192406
 21
8.146057
 31
0.0
 11
1.180639
 21
7.466277
 31
0.0
 11
1.235243
 21
6.742471
 31
0.0
 11
1.267905
 21
6.471235
 31
0.0
 11
1.294808
 21
6.284155
 31
0.0
 11
1.318075
 21
6.166458
 31
0.0
 11
1.394792
 21
5.913631
 31
0.0
 11
1.508043
 21
5.594648
 31
0.0
 11
1.626050
 21
5.299014
 31
0.0
 11
1.624802
 21
5.291715
 31
0.0
 11
1.616895
 21
5.283311
 31
0.0
 11
1.604040
 21
5.275622
 31
0.0
 11
1.584651
 21
5.269512
 31
0.0
 11
1.571699
 21
5.279492
 31
0.0
 11
1.555754
 21
5.312829
 31
0.0
  0
LWPOLYLINE
  5
103
100
AcDbEntity
  8
Layer_1
 62
7
100
AcDbPolyline
 90
1
 70
1
 10
1.555754
 20
5.312829
 30
0.0
  0
ENDSEC
  0
SECTION
  2
OBJECTS
  0
DICTIONARY
  5
C
330
0
100
AcDbDictionary
  3
ACAD_GROUP
350
D
  3
ACAD_MLINESTYLE
350
17
  0
DICTIONARY
  5
D
330
C
100
AcDbDictionary
  0
DICTIONARY
  5
1A
330
C
100
AcDbDictionary
  0
DICTIONARY
  5
17
330
C
100
AcDbDictionary
  3
STANDARD
350
18
  0
DICTIONARY
  5
19
330
C
100
AcDbDictionary
  0
ENDSEC
  0
EOF
